<?xml version="1.0" encoding="UTF-8" standalone="no"?>
<!DOCTYPE svg PUBLIC "-//W3C//DTD SVG 1.1//EN"
 "http://www.w3.org/Graphics/SVG/1.1/DTD/svg11.dtd">
<!-- Generated by graphviz version 2.43.0 (0)
 -->
<!-- Title: ERD Pages: 1 -->
<svg width="1967pt" height="1104pt"
 viewBox="0.00 0.00 1967.00 1104.00" xmlns="http://www.w3.org/2000/svg" xmlns:xlink="http://www.w3.org/1999/xlink" xmlns:c2pa="http://c2pa.org/manifest"><metadata><c2pa:manifest>AAAWgmp1bWIAAAAeanVtZGMycGEAEQAQgAAAqgA4m3EDYzJwYQAAABZcanVtYgAAAEdqdW1kYzJtYQARABCAAACqADibcQN1cm46YzJwYTpjMzljY2FkMC1hMzQ5LTQ3NjYtOTYzOS1jMzI0Y2FlMGY1ZTYAAAADl2p1bWIAAAApanVtZGMyYXMAEQAQgAAAqgA4m3EDYzJwYS5hc3NlcnRpb25zAAAAALxqdW1iAAAARGp1bWRjYm9yABEAEIAAAKoAOJtxE2MycGEuaW5ncmVkaWVudC52MwAAAAAYYzJzaBv1/7Z2IKNdcZhI8kRyV8cAAABwY2JvcqNpZGM6Zm9ybWF0bWltYWdlL3N2Zyt4bWxqaW5zdGFuY2VJRHgseG1wOmlpZDphMGYzNGY0MC1jNDVjLTQ5OTgtODExYi1mOTViNzc4MWQ4MmZscmVsYXRpb25zaGlwaHBhcmVudE9mAAAB4mp1bWIAAABBanVtZGNib3IAEQAQgAAAqgA4m3ETYzJwYS5hY3Rpb25zLnYyAAAAABhjMnNoaAT5BctIb8kcLGTcQ8lcTwAAAZljYm9yomdhY3Rpb25zgqJmYWN0aW9ua2MycGEub3BlbmVkanBhcmFtZXRlcnOha2luZ3JlZGllbnRzgaJjdXJseC1zZWxmI2p1bWJmPWMycGEuYXNzZXJ0aW9ucy9jMnBhLmluZ3JlZGllbnQudjNkaGFzaFggrYFXXCiuAiw7Hzedb8lwCq4RXXfbLMRtJhKNJqtwQNukZmFjdGlvbngdY29tLmFudGhyb3BpYy5jbGF1ZGUucHJvdmlkZWRqcGFyYW1ldGVyc6F4H2NvbS5hbnRocm9waWMub3JpZ2luLWNvbmZpZGVuY2VndW5rbm93bmtkZXNjcmlwdGlvbnhmQ2xhdWRlIHByb3ZpZGVkIHRoaXMgZmlsZSBhdCB0aGUgcmVxdWVzdCBvZiBhIHVzZXIgYW5kIG1heSBoYXZlIGNyZWF0ZWQgb3IgbW9kaWZpZWQgdGhlIGZpbGUgY29udGVudHMubXNvZnR3YXJlQWdlbnShZG5hbWVmQ2xhdWRlcmFsbEFjdGlvbnNJbmNsdWRlZPUAAADIanVtYgAAAEBqdW1kY2JvcgARABCAAACqADibcRNjMnBhLmhhc2guZGF0YQAAAAAYYzJzaNSO72Vwort8be64aDq0VmUAAACAY2JvcqVjYWxnZnNoYTI1NmNwYWRMAAAAAAAAAAAAAAAAZGhhc2hYIHPLm1D9cbcp4MdlHmGLfqyij8mBCeJS/4ALN6S6mPOUZG5hbWVuanVtYmYgbWFuaWZlc3RqZXhjbHVzaW9uc4GiZXN0YXJ0GQHBZmxlbmd0aBkeBAAAAj5qdW1iAAAAJ2p1bWRjMmNsABEAEIAAAKoAOJtxA2MycGEuY2xhaW0udjIAAAACD2Nib3KlY2FsZ2ZzaGEyNTZpc2lnbmF0dXJleE1zZWxmI2p1bWJmPS9jMnBhL3VybjpjMnBhOmMzOWNjYWQwLWEzNDktNDc2Ni05NjM5LWMzMjRjYWUwZjVlNi9jMnBhLnNpZ25hdHVyZWppbnN0YW5jZUlEeCx4bXA6aWlkOmRkNWY4NWVlLWI1ODQtNDNhZi05NzA1LTc2NDYwNWE0ODc1OXJjcmVhdGVkX2Fzc2VydGlvbnODomN1cmx4LXNlbGYjanVtYmY9YzJwYS5hc3NlcnRpb25zL2MycGEuaW5ncmVkaWVudC52M2RoYXNoWCCtgVdcKK4CLDsfN51vyXAKrhFdd9ssxG0mEo0mq3BA26JjdXJseCpzZWxmI2p1bWJmPWMycGEuYXNzZXJ0aW9ucy9jMnBhLmFjdGlvbnMudjJkaGFzaFgg2rba88zO9GjVQOVjjjRoMVzm+Y33VOrIG+6NcV433/WiY3VybHgpc2VsZiNqdW1iZj1jMnBhLmFzc2VydGlvbnMvYzJwYS5oYXNoLmRhdGFkaGFzaFggiuO1mC1V8WdQqFyLRok1ZxFP7zwNKrGgAWWQtdBexW90Y2xhaW1fZ2VuZXJhdG9yX2luZm+jZG5hbWVvQW50aHJvcGljIEZpbGVzZ3ZlcnNpb25lMS4wLjBrc3BlY1ZlcnNpb25lMi40LjAAABA4anVtYgAAAChqdW1kYzJjcwARABCAAACqADibcQNjMnBhLnNpZ25hdHVyZQAAABAIY2JvctKEWQISogEmGCFZAgowggIGMIIBjaADAgECAhRA5aAK7sI50L64g/oGQgU9Z1UTADAKBggqhkjOPQQDAzBJMRcwFQYDVQQKEw5BbnRocm9waWMsIFBCQzEuMCwGA1UEAxMlQW50aHJvcGljIENvbnRlbnQgQ3JlZGVudGlhbHMgUm9vdCBDQTAeFw0yNjA4MDcxODQzNTZaFw0yODA4MDYxOTQzNTZaMEQxFzAVBgNVBAoTDkFudGhyb3BpYywgUEJDMSkwJwYDVQQDEyBBbnRocm9waWMgQ2xhdWRlIENvbnRlbnQgU2lnbmluZzBZMBMGByqGSM49AgEGCCqGSM49AwEHA0IABJh6CmvLUBgFFNU0vUKlOVtE6djd17L5SuwX0LemFisBM3dkd/3cyjxFA3Qo5S46fX0/ihY0VZ7mfb9KF703t5OjWDBWMA4GA1UdDwEB/wQEAwIHgDAVBgNVHSUEDjAMBgorBgEEAYPoXgIBMAwGA1UdEwEB/wQCMAAwHwYDVR0jBBgwFoAUzlHiBIFOZFsj+OPEz5o+nMHXXMIwCgYIKoZIzj0EAwMDZwAwZAIwMXMdFJ4BetLLVY7ORuE9noqbbAZOZn/aArXyTwFAZfKrPzxF2vPoJNf1+UCdg1XGAjBwX1zd9WGqYkqmL5SFqw1QySjr1zJfpJM9+1rdDwSPLMOPOjKuiXjoU/pUUeG9RwmhY3BhZFkNngAAAAAAAAAAAAAAAAAAAAAAAAAAAAAAAAAAAAAAAAAAAAAAAAAAAAAAAAAAAAAAAAAAAAAAAAAAAAAAAAAAAAAAAAAAAAAAAAAAAAAAAAAAAAAAAAAAAAAAAAAAAAAAAAAAAAAAAAAAAAAAAAAAAAAAAAAAAAAAAAAAAAAAAAAAAAAAAAAAAAAAAAAAAAAAAAAAAAAAAAAAAAAAAAAAAAAAAAAAAAAAAAAAAAAAAAAAAAAAAAAAAAAAAAAAAAAAAAAAAAAAAAAAAAAAAAAAAAAAAAAAAAAAAAAAAAAAAAAAAAAAAAAAAAAAAAAAAAAAAAAAAAAAAAAAAAAAAAAAAAAAAAAAAAAAAAAAAAAAAAAAAAAAAAAAAAAAAAAAAAAAAAAAAAAAAAAAAAAAAAAAAAAAAAAAAAAAAAAAAAAAAAAAAAAAAAAAAAAAAAAAAAAAAAAAAAAAAAAAAAAAAAAAAAAAAAAAAAAAAAAAAAAAAAAAAAAAAAAAAAAAAAAAAAAAAAAAAAAAAAAAAAAAAAAAAAAAAAAAAAAAAAAAAAAAAAAAAAAAAAAAAAAAAAAAAAAAAAAAAAAAAAAAAAAAAAAAAAAAAAAAAAAAAAAAAAAAAAAAAAAAAAAAAAAAAAAAAAAAAAAAAAAAAAAAAAAAAAAAAAAAAAAAAAAAAAAAAAAAAAAAAAAAAAAAAAAAAAAAAAAAAAAAAAAAAAAAAAAAAAAAAAAAAAAAAAAAAAAAAAAAAAAAAAAAAAAAAAAAAAAAAAAAAAAAAAAAAAAAAAAAAAAAAAAAAAAAAAAAAAAAAAAAAAAAAAAAAAAAAAAAAAAAAAAAAAAAAAAAAAAAAAAAAAAAAAAAAAAAAAAAAAAAAAAAAAAAAAAAAAAAAAAAAAAAAAAAAAAAAAAAAAAAAAAAAAAAAAAAAAAAAAAAAAAAAAAAAAAAAAAAAAAAAAAAAAAAAAAAAAAAAAAAAAAAAAAAAAAAAAAAAAAAAAAAAAAAAAAAAAAAAAAAAAAAAAAAAAAAAAAAAAAAAAAAAAAAAAAAAAAAAAAAAAAAAAAAAAAAAAAAAAAAAAAAAAAAAAAAAAAAAAAAAAAAAAAAAAAAAAAAAAAAAAAAAAAAAAAAAAAAAAAAAAAAAAAAAAAAAAAAAAAAAAAAAAAAAAAAAAAAAAAAAAAAAAAAAAAAAAAAAAAAAAAAAAAAAAAAAAAAAAAAAAAAAAAAAAAAAAAAAAAAAAAAAAAAAAAAAAAAAAAAAAAAAAAAAAAAAAAAAAAAAAAAAAAAAAAAAAAAAAAAAAAAAAAAAAAAAAAAAAAAAAAAAAAAAAAAAAAAAAAAAAAAAAAAAAAAAAAAAAAAAAAAAAAAAAAAAAAAAAAAAAAAAAAAAAAAAAAAAAAAAAAAAAAAAAAAAAAAAAAAAAAAAAAAAAAAAAAAAAAAAAAAAAAAAAAAAAAAAAAAAAAAAAAAAAAAAAAAAAAAAAAAAAAAAAAAAAAAAAAAAAAAAAAAAAAAAAAAAAAAAAAAAAAAAAAAAAAAAAAAAAAAAAAAAAAAAAAAAAAAAAAAAAAAAAAAAAAAAAAAAAAAAAAAAAAAAAAAAAAAAAAAAAAAAAAAAAAAAAAAAAAAAAAAAAAAAAAAAAAAAAAAAAAAAAAAAAAAAAAAAAAAAAAAAAAAAAAAAAAAAAAAAAAAAAAAAAAAAAAAAAAAAAAAAAAAAAAAAAAAAAAAAAAAAAAAAAAAAAAAAAAAAAAAAAAAAAAAAAAAAAAAAAAAAAAAAAAAAAAAAAAAAAAAAAAAAAAAAAAAAAAAAAAAAAAAAAAAAAAAAAAAAAAAAAAAAAAAAAAAAAAAAAAAAAAAAAAAAAAAAAAAAAAAAAAAAAAAAAAAAAAAAAAAAAAAAAAAAAAAAAAAAAAAAAAAAAAAAAAAAAAAAAAAAAAAAAAAAAAAAAAAAAAAAAAAAAAAAAAAAAAAAAAAAAAAAAAAAAAAAAAAAAAAAAAAAAAAAAAAAAAAAAAAAAAAAAAAAAAAAAAAAAAAAAAAAAAAAAAAAAAAAAAAAAAAAAAAAAAAAAAAAAAAAAAAAAAAAAAAAAAAAAAAAAAAAAAAAAAAAAAAAAAAAAAAAAAAAAAAAAAAAAAAAAAAAAAAAAAAAAAAAAAAAAAAAAAAAAAAAAAAAAAAAAAAAAAAAAAAAAAAAAAAAAAAAAAAAAAAAAAAAAAAAAAAAAAAAAAAAAAAAAAAAAAAAAAAAAAAAAAAAAAAAAAAAAAAAAAAAAAAAAAAAAAAAAAAAAAAAAAAAAAAAAAAAAAAAAAAAAAAAAAAAAAAAAAAAAAAAAAAAAAAAAAAAAAAAAAAAAAAAAAAAAAAAAAAAAAAAAAAAAAAAAAAAAAAAAAAAAAAAAAAAAAAAAAAAAAAAAAAAAAAAAAAAAAAAAAAAAAAAAAAAAAAAAAAAAAAAAAAAAAAAAAAAAAAAAAAAAAAAAAAAAAAAAAAAAAAAAAAAAAAAAAAAAAAAAAAAAAAAAAAAAAAAAAAAAAAAAAAAAAAAAAAAAAAAAAAAAAAAAAAAAAAAAAAAAAAAAAAAAAAAAAAAAAAAAAAAAAAAAAAAAAAAAAAAAAAAAAAAAAAAAAAAAAAAAAAAAAAAAAAAAAAAAAAAAAAAAAAAAAAAAAAAAAAAAAAAAAAAAAAAAAAAAAAAAAAAAAAAAAAAAAAAAAAAAAAAAAAAAAAAAAAAAAAAAAAAAAAAAAAAAAAAAAAAAAAAAAAAAAAAAAAAAAAAAAAAAAAAAAAAAAAAAAAAAAAAAAAAAAAAAAAAAAAAAAAAAAAAAAAAAAAAAAAAAAAAAAAAAAAAAAAAAAAAAAAAAAAAAAAAAAAAAAAAAAAAAAAAAAAAAAAAAAAAAAAAAAAAAAAAAAAAAAAAAAAAAAAAAAAAAAAAAAAAAAAAAAAAAAAAAAAAAAAAAAAAAAAAAAAAAAAAAAAAAAAAAAAAAAAAAAAAAAAAAAAAAAAAAAAAAAAAAAAAAAAAAAAAAAAAAAAAAAAAAAAAAAAAAAAAAAAAAAAAAAAAAAAAAAAAAAAAAAAAAAAAAAAAAAAAAAAAAAAAAAAAAAAAAAAAAAAAAAAAAAAAAAAAAAAAAAAAAAAAAAAAAAAAAAAAAAAAAAAAAAAAAAAAAAAAAAAAAAAAAAAAAAAAAAAAAAAAAAAAAAAAAAAAAAAAAAAAAAAAAAAAAAAAAAAAAAAAAAAAAAAAAAAAAAAAAAAAAAAAAAAAAAAAAAAAAAAAAAAAAAAAAAAAAAAAAAAAAAAAAAAAAAAAAAAAAAAAAAAAAAAAAAAAAAAAAAAAAAAAAAAAAAAAAAAAAAAAAAAAAAAAAAAAAAAAAAAAAAAAAAAAAAAAAAAAAAAAAAAAAAAAAAAAAAAAAAAAAAAAAAAAAAAAAAAAAAAAAAAAAAAAAAAAAAAAAAAAAAAAAAAAAAAAAAAAAAAAAAAAAAAAAAAAAAAAAAAAAAAAAAAAAAAAAAAAAAAAAAAAAAAAAAAAAAAAAAAAAAAAAAAAAAAAAAAAAAAAAAAAAAAAAAAAAAAAAAAAAAAAAAAAAAAAAAAAAAAAAAAAAAAAAAAAAAAAAAAAAAAAAAAAAAAAAAAAAAAAAAAAAAAAAAAAAAAAAAAAAAAAAAAAAAAAAAAAAAAAAAAAAAAAAAAAAAAAAAAAAAAAAAAAAAAAAAAAAAAAAAAAAAAAAAAAAAAAAAAAAAAAAAAAAAAAAAAAAAAAAAAAAAAAAAAAAAAAAAAAAAAAAAAAAAAAAAAAAAAAAAAAAAAAAAAAAAAAAAAAAAAAAAAAAAAAAAAAAAAAAAAAAAAAAAAAAAAAAAAAAAAAAAAAAAAAAAAAAAAAAAAAAAAAAAAAAAAAAAAAAAAAAAAAAAAAAAAAAAAAAAAAAAAAAAAAAAAAAAAAAAAAAAAAAAAAAAAAAAAAAAAAAAAAAAAAAAAAAAAAAAAAAAAAAAAAAAAAAAAAAAAAAAAAAAAAAAAAAAAAAAAAAAAAAAAAAAAAAAAAAAAAAAAAAAAAAAAAAAAAAAAAAAAAAAAAAAAAAAAAAAAAAAAAAAAAAAAAAAAAAAAAAAAAAAAAAAAAAAAAAAAAAAAAAAAAAAAAAAAAAAAAAAAAAAAAAAAAAAAAAAAAAAAAAAAAAAAAAAAAAAAAAAAAAAAAAAAAAAAAAAAAAAAAAAAAAAAAAAAAAAAAAAAAAAAAAAAAAAAAAAAAAAAAAAAAAAAAAAAAAAAAAAAAAAAAAAAAAAAAAAAAAAAAAAAAAAAAAAAAAAAAAAAAAAAAAAAAAAAAAAAAAAAAAAAAAAAAAAAAAAAAAAAAAAAAAAAAAAAAAAAAAAAAAAAAAAAAAAAAAAAAAAAAAAAAAAAAAAAAAAAAAAAAAAAAAAAAAAAAAAAAAAAAAAAAAAAAAAAAAAAAAAAAAAAAAAAAAAAAAAAAAAAAAAAAAAAAAAAAAAAAAAAAAAAAAAAAAAAAAAAAAAAAAAAAAAAAAAAAAAAAAAAAAAAAAAAAAAAAAAAAAAAAAAAAAAAAAAAAAAAAAAAAAAAAAAAAAAAAAAAAAAAAAAAAAAAAAAAAAAAAAAAAAAAAAAAAAAAAAAAAAAAAAAAAAAAAAAAAAAAAAAAAAAAAAAAAAAAAAAAAAAAAAAAAAAAAAAAAAAAAAAAAPZYQM4zJAAGAXE3ry7yAe0bca9dEZjf7+2QpTSIBnnyPyWLwNX+YdZQYuU+LtJ1UAOb+lRWEyisVp8R0LMgad7zVFM=</c2pa:manifest></metadata>
<g id="graph0" class="graph" transform="scale(1 1) rotate(0) translate(4 1100)">
<title>ERD</title>
<polygon fill="white" stroke="transparent" points="-4,4 -4,-1100 1963,-1100 1963,4 -4,4"/>
<text text-anchor="middle" x="979.5" y="-1076" font-family="Helvetica,sans-Serif" font-size="20.00">SIGMAP&#45;AQUA / BioAqua System &#160;&#45; &#160;Diagrama Entidad&#45;Relacion (esquema real, 17 tablas)</text>
<!-- roles -->
<g id="node1" class="node">
<title>roles</title>
<polygon fill="#e0e7ff" stroke="black" stroke-width="1.2" points="52.5,-11.5 52.5,-63.5 209.5,-63.5 209.5,-11.5 52.5,-11.5"/>
<text text-anchor="middle" x="73" y="-35" font-family="Helvetica,sans-Serif" font-size="10.00">roles</text>
<polyline fill="none" stroke="black" stroke-width="1.2" points="93.5,-11.5 93.5,-63.5 "/>
<text text-anchor="start" x="101.5" y="-51.5" font-family="Helvetica,sans-Serif" font-size="10.00">id PK</text>
<text text-anchor="start" x="101.5" y="-40.5" font-family="Helvetica,sans-Serif" font-size="10.00">nombre_rol (unique)</text>
<text text-anchor="start" x="101.5" y="-29.5" font-family="Helvetica,sans-Serif" font-size="10.00">permisos (JSON)</text>
<text text-anchor="start" x="101.5" y="-18.5" font-family="Helvetica,sans-Serif" font-size="10.00">estado</text>
</g>
<!-- usuarios -->
<g id="node2" class="node">
<title>usuarios</title>
<polygon fill="#e0e7ff" stroke="black" stroke-width="1.2" points="387.5,-0.5 387.5,-74.5 550.5,-74.5 550.5,-0.5 387.5,-0.5"/>
<text text-anchor="middle" x="416.5" y="-35" font-family="Helvetica,sans-Serif" font-size="10.00">usuarios</text>
<polyline fill="none" stroke="black" stroke-width="1.2" points="445.5,-0.5 445.5,-74.5 "/>
<text text-anchor="start" x="453.5" y="-62.5" font-family="Helvetica,sans-Serif" font-size="10.00">id PK</text>
<text text-anchor="start" x="453.5" y="-51.5" font-family="Helvetica,sans-Serif" font-size="10.00">email (unique)</text>
<text text-anchor="start" x="453.5" y="-40.5" font-family="Helvetica,sans-Serif" font-size="10.00">password (hash)</text>
<text text-anchor="start" x="453.5" y="-29.5" font-family="Helvetica,sans-Serif" font-size="10.00">nombre_completo</text>
<text text-anchor="start" x="453.5" y="-18.5" font-family="Helvetica,sans-Serif" font-size="10.00">rol → roles</text>
<text text-anchor="start" x="453.5" y="-7.5" font-family="Helvetica,sans-Serif" font-size="10.00">estado</text>
</g>
<!-- roles&#45;&gt;usuarios -->
<g id="edge1" class="edge">
<title>roles&#45;&gt;usuarios</title>
<path fill="none" stroke="#475569" d="M209.82,-37.5C209.82,-37.5 379.41,-37.5 379.41,-37.5"/>
<polygon fill="#475569" stroke="#475569" points="379.41,-40.3 387.41,-37.5 379.41,-34.7 379.41,-40.3"/>
</g>
<!-- lect -->
<g id="node8" class="node">
<title>lect</title>
<polygon fill="#fef9c3" stroke="black" stroke-width="1.2" points="1058,-752 1058,-859 1341,-859 1341,-752 1058,-752"/>
<text text-anchor="middle" x="1110" y="-803" font-family="Helvetica,sans-Serif" font-size="10.00">lecturas_sensores</text>
<polyline fill="none" stroke="black" stroke-width="1.2" points="1162,-752 1162,-859 "/>
<text text-anchor="start" x="1170" y="-847" font-family="Helvetica,sans-Serif" font-size="10.00">id PK</text>
<text text-anchor="start" x="1170" y="-836" font-family="Helvetica,sans-Serif" font-size="10.00">sensor → sensores</text>
<text text-anchor="start" x="1170" y="-825" font-family="Helvetica,sans-Serif" font-size="10.00">geomembrana → geomembranas</text>
<text text-anchor="start" x="1170" y="-814" font-family="Helvetica,sans-Serif" font-size="10.00">tipo_parametro → tipos</text>
<text text-anchor="start" x="1170" y="-803" font-family="Helvetica,sans-Serif" font-size="10.00">valor_medida</text>
<text text-anchor="start" x="1170" y="-792" font-family="Helvetica,sans-Serif" font-size="10.00">estado_lectura</text>
<text text-anchor="start" x="1170" y="-781" font-family="Helvetica,sans-Serif" font-size="10.00">timestamp_lectura</text>
<text text-anchor="start" x="1170" y="-770" font-family="Helvetica,sans-Serif" font-size="10.00">dispositivo → dispositivos</text>
<text text-anchor="start" x="1170" y="-759" font-family="Helvetica,sans-Serif" font-size="10.00">secuencia</text>
</g>
<!-- usuarios&#45;&gt;lect -->
<g id="edge10" class="edge">
<title>usuarios&#45;&gt;lect</title>
<path fill="none" stroke="#475569" stroke-dasharray="5,2" d="M550.59,-60.36C587.93,-60.36 624,-60.36 624,-60.36 624,-60.36 624,-779.67 624,-779.67 624,-779.67 1049.98,-779.67 1049.98,-779.67"/>
<polygon fill="#475569" stroke="#475569" points="1049.98,-782.47 1057.98,-779.67 1049.98,-776.87 1049.98,-782.47"/>
</g>
<!-- alertas -->
<g id="node9" class="node">
<title>alertas</title>
<polygon fill="#fee2e2" stroke="black" stroke-width="1.2" points="1420,-571.5 1420,-667.5 1659,-667.5 1659,-571.5 1420,-571.5"/>
<text text-anchor="middle" x="1445" y="-617" font-family="Helvetica,sans-Serif" font-size="10.00">alertas</text>
<polyline fill="none" stroke="black" stroke-width="1.2" points="1470,-571.5 1470,-667.5 "/>
<text text-anchor="start" x="1478" y="-655.5" font-family="Helvetica,sans-Serif" font-size="10.00">id PK</text>
<text text-anchor="start" x="1478" y="-644.5" font-family="Helvetica,sans-Serif" font-size="10.00">geomembrana → geomembranas</text>
<text text-anchor="start" x="1478" y="-633.5" font-family="Helvetica,sans-Serif" font-size="10.00">sensor → sensores</text>
<text text-anchor="start" x="1478" y="-622.5" font-family="Helvetica,sans-Serif" font-size="10.00">tipo_parametro → tipos</text>
<text text-anchor="start" x="1478" y="-611.5" font-family="Helvetica,sans-Serif" font-size="10.00">lectura → lecturas_sensores</text>
<text text-anchor="start" x="1478" y="-600.5" font-family="Helvetica,sans-Serif" font-size="10.00">tipo_alerta / severidad</text>
<text text-anchor="start" x="1478" y="-589.5" font-family="Helvetica,sans-Serif" font-size="10.00">estado</text>
<text text-anchor="start" x="1478" y="-578.5" font-family="Helvetica,sans-Serif" font-size="10.00">usuario_reconocimiento → usuarios</text>
</g>
<!-- usuarios&#45;&gt;alertas -->
<g id="edge15" class="edge">
<title>usuarios&#45;&gt;alertas</title>
<path fill="none" stroke="#475569" stroke-dasharray="5,2" d="M550.76,-51.21C598.73,-51.21 650,-51.21 650,-51.21 650,-51.21 650,-583.33 650,-583.33 650,-583.33 1412,-583.33 1412,-583.33"/>
<polygon fill="#475569" stroke="#475569" points="1412,-586.13 1420,-583.33 1412,-580.53 1412,-586.13"/>
</g>
<!-- notif -->
<g id="node11" class="node">
<title>notif</title>
<polygon fill="#fee2e2" stroke="black" stroke-width="1.2" points="1738,-99 1738,-162 1959,-162 1959,-99 1738,-99"/>
<text text-anchor="middle" x="1794.5" y="-128" font-family="Helvetica,sans-Serif" font-size="10.00">notificaciones_push</text>
<polyline fill="none" stroke="black" stroke-width="1.2" points="1851,-99 1851,-162 "/>
<text text-anchor="start" x="1859" y="-150" font-family="Helvetica,sans-Serif" font-size="10.00">id PK</text>
<text text-anchor="start" x="1859" y="-139" font-family="Helvetica,sans-Serif" font-size="10.00">usuario → usuarios</text>
<text text-anchor="start" x="1859" y="-128" font-family="Helvetica,sans-Serif" font-size="10.00">alerta → alertas</text>
<text text-anchor="start" x="1859" y="-117" font-family="Helvetica,sans-Serif" font-size="10.00">titulo / mensaje</text>
<text text-anchor="start" x="1859" y="-106" font-family="Helvetica,sans-Serif" font-size="10.00">leida</text>
</g>
<!-- usuarios&#45;&gt;notif -->
<g id="edge17" class="edge">
<title>usuarios&#45;&gt;notif</title>
<path fill="none" stroke="#475569" d="M497,-74.65C497,-88.98 497,-102 497,-102 497,-102 1729.9,-102 1729.9,-102"/>
<polygon fill="#475569" stroke="#475569" points="1729.9,-104.8 1737.9,-102 1729.9,-99.2 1729.9,-104.8"/>
</g>
<!-- rep -->
<g id="node12" class="node">
<title>rep</title>
<polygon fill="#e0f2fe" stroke="black" stroke-width="1.2" points="709.5,-6 709.5,-69 945.5,-69 945.5,-6 709.5,-6"/>
<text text-anchor="middle" x="738" y="-35" font-family="Helvetica,sans-Serif" font-size="10.00">reportes</text>
<polyline fill="none" stroke="black" stroke-width="1.2" points="766.5,-6 766.5,-69 "/>
<text text-anchor="start" x="774.5" y="-57" font-family="Helvetica,sans-Serif" font-size="10.00">id PK</text>
<text text-anchor="start" x="774.5" y="-46" font-family="Helvetica,sans-Serif" font-size="10.00">geomembrana → geomembranas</text>
<text text-anchor="start" x="774.5" y="-35" font-family="Helvetica,sans-Serif" font-size="10.00">tipo_reporte</text>
<text text-anchor="start" x="774.5" y="-24" font-family="Helvetica,sans-Serif" font-size="10.00">datos_reporte (JSON)</text>
<text text-anchor="start" x="774.5" y="-13" font-family="Helvetica,sans-Serif" font-size="10.00">generado_por → usuarios</text>
</g>
<!-- usuarios&#45;&gt;rep -->
<g id="edge20" class="edge">
<title>usuarios&#45;&gt;rep</title>
<path fill="none" stroke="#475569" stroke-dasharray="5,2" d="M550.8,-14.64C550.8,-14.64 701.35,-14.64 701.35,-14.64"/>
<polygon fill="#475569" stroke="#475569" points="701.35,-17.44 709.35,-14.64 701.35,-11.84 701.35,-17.44"/>
</g>
<!-- comp -->
<g id="node13" class="node">
<title>comp</title>
<polygon fill="#e0f2fe" stroke="black" stroke-width="1.2" points="676.5,-228 676.5,-291 978.5,-291 978.5,-228 676.5,-228"/>
<text text-anchor="middle" x="738" y="-257" font-family="Helvetica,sans-Serif" font-size="10.00">comparaciones_datos</text>
<polyline fill="none" stroke="black" stroke-width="1.2" points="799.5,-228 799.5,-291 "/>
<text text-anchor="start" x="807.5" y="-279" font-family="Helvetica,sans-Serif" font-size="10.00">id PK</text>
<text text-anchor="start" x="807.5" y="-268" font-family="Helvetica,sans-Serif" font-size="10.00">geomembrana → geomembranas</text>
<text text-anchor="start" x="807.5" y="-257" font-family="Helvetica,sans-Serif" font-size="10.00">usuario → usuarios</text>
<text text-anchor="start" x="807.5" y="-246" font-family="Helvetica,sans-Serif" font-size="10.00">periodo_1 / periodo_2</text>
<text text-anchor="start" x="807.5" y="-235" font-family="Helvetica,sans-Serif" font-size="10.00">resultados (JSON)</text>
</g>
<!-- usuarios&#45;&gt;comp -->
<g id="edge22" class="edge">
<title>usuarios&#45;&gt;comp</title>
<path fill="none" stroke="#475569" stroke-dasharray="5,2" d="M550.51,-42.07C610.99,-42.07 683,-42.07 683,-42.07 683,-42.07 683,-219.88 683,-219.88"/>
<polygon fill="#475569" stroke="#475569" points="680.2,-219.88 683,-227.88 685.8,-219.88 680.2,-219.88"/>
</g>
<!-- ia -->
<g id="node14" class="node">
<title>ia</title>
<polygon fill="#f3e8ff" stroke="black" stroke-width="1.2" points="704,-328.5 704,-402.5 951,-402.5 951,-328.5 704,-328.5"/>
<text text-anchor="middle" x="738" y="-363" font-family="Helvetica,sans-Serif" font-size="10.00">analisis_ia</text>
<polyline fill="none" stroke="black" stroke-width="1.2" points="772,-328.5 772,-402.5 "/>
<text text-anchor="start" x="780" y="-390.5" font-family="Helvetica,sans-Serif" font-size="10.00">id PK</text>
<text text-anchor="start" x="780" y="-379.5" font-family="Helvetica,sans-Serif" font-size="10.00">geomembrana → geomembranas</text>
<text text-anchor="start" x="780" y="-368.5" font-family="Helvetica,sans-Serif" font-size="10.00">datos_entrada/salida (JSON)</text>
<text text-anchor="start" x="780" y="-357.5" font-family="Helvetica,sans-Serif" font-size="10.00">recomendaciones</text>
<text text-anchor="start" x="780" y="-346.5" font-family="Helvetica,sans-Serif" font-size="10.00">modelo_usado</text>
<text text-anchor="start" x="780" y="-335.5" font-family="Helvetica,sans-Serif" font-size="10.00">validado_por → usuarios</text>
</g>
<!-- usuarios&#45;&gt;ia -->
<g id="edge24" class="edge">
<title>usuarios&#45;&gt;ia</title>
<path fill="none" stroke="#475569" stroke-dasharray="5,2" d="M442,-74.62C442,-158.02 442,-353 442,-353 442,-353 695.93,-353 695.93,-353"/>
<polygon fill="#475569" stroke="#475569" points="695.93,-355.8 703.93,-353 695.93,-350.2 695.93,-355.8"/>
</g>
<!-- evt -->
<g id="node16" class="node">
<title>evt</title>
<polygon fill="#fae8ff" stroke="black" stroke-width="1.2" points="688,-106 688,-191 967,-191 967,-106 688,-106"/>
<text text-anchor="middle" x="738" y="-146" font-family="Helvetica,sans-Serif" font-size="10.00">eventos_sistema</text>
<polyline fill="none" stroke="black" stroke-width="1.2" points="788,-106 788,-191 "/>
<text text-anchor="start" x="796" y="-179" font-family="Helvetica,sans-Serif" font-size="10.00">id PK</text>
<text text-anchor="start" x="796" y="-168" font-family="Helvetica,sans-Serif" font-size="10.00">tipo_evento / nivel</text>
<text text-anchor="start" x="796" y="-157" font-family="Helvetica,sans-Serif" font-size="10.00">usuario → usuarios</text>
<text text-anchor="start" x="796" y="-146" font-family="Helvetica,sans-Serif" font-size="10.00">geomembrana → geomembranas</text>
<text text-anchor="start" x="796" y="-135" font-family="Helvetica,sans-Serif" font-size="10.00">descripcion</text>
<text text-anchor="start" x="796" y="-124" font-family="Helvetica,sans-Serif" font-size="10.00">datos (JSON)</text>
<text text-anchor="start" x="796" y="-113" font-family="Helvetica,sans-Serif" font-size="10.00">created_at</text>
</g>
<!-- usuarios&#45;&gt;evt -->
<g id="edge28" class="edge">
<title>usuarios&#45;&gt;evt</title>
<path fill="none" stroke="#475569" stroke-dasharray="5,2" d="M550.74,-32.93C616.85,-32.93 699,-32.93 699,-32.93 699,-32.93 699,-97.79 699,-97.79"/>
<polygon fill="#475569" stroke="#475569" points="696.2,-97.79 699,-105.79 701.8,-97.79 696.2,-97.79"/>
</g>
<!-- etapas -->
<g id="node3" class="node">
<title>etapas</title>
<polygon fill="#dcfce7" stroke="black" stroke-width="1.2" points="0,-481 0,-522 262,-522 262,-481 0,-481"/>
<text text-anchor="middle" x="54" y="-499" font-family="Helvetica,sans-Serif" font-size="10.00">etapas_produccion</text>
<polyline fill="none" stroke="black" stroke-width="1.2" points="108,-481 108,-522 "/>
<text text-anchor="start" x="116" y="-510" font-family="Helvetica,sans-Serif" font-size="10.00">id PK</text>
<text text-anchor="start" x="116" y="-499" font-family="Helvetica,sans-Serif" font-size="10.00">nombre_etapa (unique)</text>
<text text-anchor="start" x="116" y="-488" font-family="Helvetica,sans-Serif" font-size="10.00">rangos ideales (ph/ox/temp)</text>
</g>
<!-- geo -->
<g id="node4" class="node">
<title>geo</title>
<polygon fill="#dcfce7" stroke="black" stroke-width="1.2" points="341,-459 341,-544 597,-544 597,-459 341,-459"/>
<text text-anchor="middle" x="387.5" y="-499" font-family="Helvetica,sans-Serif" font-size="10.00">geomembranas</text>
<polyline fill="none" stroke="black" stroke-width="1.2" points="434,-459 434,-544 "/>
<text text-anchor="start" x="442" y="-532" font-family="Helvetica,sans-Serif" font-size="10.00">id PK</text>
<text text-anchor="start" x="442" y="-521" font-family="Helvetica,sans-Serif" font-size="10.00">codigo_identificacion (unique)</text>
<text text-anchor="start" x="442" y="-510" font-family="Helvetica,sans-Serif" font-size="10.00">nombre_piscina</text>
<text text-anchor="start" x="442" y="-499" font-family="Helvetica,sans-Serif" font-size="10.00">area_m2 / volumen_m3</text>
<text text-anchor="start" x="442" y="-488" font-family="Helvetica,sans-Serif" font-size="10.00">etapa_actual → etapas</text>
<text text-anchor="start" x="442" y="-477" font-family="Helvetica,sans-Serif" font-size="10.00">apta_para_produccion</text>
<text text-anchor="start" x="442" y="-466" font-family="Helvetica,sans-Serif" font-size="10.00">estado</text>
</g>
<!-- etapas&#45;&gt;geo -->
<g id="edge2" class="edge">
<title>etapas&#45;&gt;geo</title>
<path fill="none" stroke="#475569" d="M262.16,-501.5C262.16,-501.5 332.97,-501.5 332.97,-501.5"/>
<polygon fill="#475569" stroke="#475569" points="332.97,-504.3 340.97,-501.5 332.97,-498.7 332.97,-504.3"/>
</g>
<!-- sensores -->
<g id="node6" class="node">
<title>sensores</title>
<polygon fill="#fef9c3" stroke="black" stroke-width="1.2" points="708,-948 708,-1033 947,-1033 947,-948 708,-948"/>
<text text-anchor="middle" x="738" y="-988" font-family="Helvetica,sans-Serif" font-size="10.00">sensores</text>
<polyline fill="none" stroke="black" stroke-width="1.2" points="768,-948 768,-1033 "/>
<text text-anchor="start" x="776" y="-1021" font-family="Helvetica,sans-Serif" font-size="10.00">id PK</text>
<text text-anchor="start" x="776" y="-1010" font-family="Helvetica,sans-Serif" font-size="10.00">codigo_hardware (unique)</text>
<text text-anchor="start" x="776" y="-999" font-family="Helvetica,sans-Serif" font-size="10.00">geomembrana → geomembranas</text>
<text text-anchor="start" x="776" y="-988" font-family="Helvetica,sans-Serif" font-size="10.00">tipo_parametro → tipos</text>
<text text-anchor="start" x="776" y="-977" font-family="Helvetica,sans-Serif" font-size="10.00">rango_medicion_min/max</text>
<text text-anchor="start" x="776" y="-966" font-family="Helvetica,sans-Serif" font-size="10.00">intervalo_lectura_segundos</text>
<text text-anchor="start" x="776" y="-955" font-family="Helvetica,sans-Serif" font-size="10.00">estado</text>
</g>
<!-- geo&#45;&gt;sensores -->
<g id="edge3" class="edge">
<title>geo&#45;&gt;sensores</title>
<path fill="none" stroke="#475569" d="M415,-544.41C415,-661.92 415,-980.25 415,-980.25 415,-980.25 699.91,-980.25 699.91,-980.25"/>
<polygon fill="#475569" stroke="#475569" points="699.91,-983.05 707.91,-980.25 699.91,-977.45 699.91,-983.05"/>
</g>
<!-- disp -->
<g id="node7" class="node">
<title>disp</title>
<polygon fill="#fef9c3" stroke="black" stroke-width="1.2" points="700.5,-836.5 700.5,-910.5 954.5,-910.5 954.5,-836.5 700.5,-836.5"/>
<text text-anchor="middle" x="738" y="-871" font-family="Helvetica,sans-Serif" font-size="10.00">dispositivos</text>
<polyline fill="none" stroke="black" stroke-width="1.2" points="775.5,-836.5 775.5,-910.5 "/>
<text text-anchor="start" x="783.5" y="-898.5" font-family="Helvetica,sans-Serif" font-size="10.00">id PK</text>
<text text-anchor="start" x="783.5" y="-887.5" font-family="Helvetica,sans-Serif" font-size="10.00">codigo (unique)</text>
<text text-anchor="start" x="783.5" y="-876.5" font-family="Helvetica,sans-Serif" font-size="10.00">token (unique)</text>
<text text-anchor="start" x="783.5" y="-865.5" font-family="Helvetica,sans-Serif" font-size="10.00">geomembrana → geomembranas</text>
<text text-anchor="start" x="783.5" y="-854.5" font-family="Helvetica,sans-Serif" font-size="10.00">ultima_conexion</text>
<text text-anchor="start" x="783.5" y="-843.5" font-family="Helvetica,sans-Serif" font-size="10.00">estado</text>
</g>
<!-- geo&#45;&gt;disp -->
<g id="edge5" class="edge">
<title>geo&#45;&gt;disp</title>
<path fill="none" stroke="#475569" d="M451,-544.17C451,-641.89 451,-873.5 451,-873.5 451,-873.5 692.3,-873.5 692.3,-873.5"/>
<polygon fill="#475569" stroke="#475569" points="692.3,-876.3 700.3,-873.5 692.3,-870.7 692.3,-876.3"/>
</g>
<!-- geo&#45;&gt;lect -->
<g id="edge7" class="edge">
<title>geo&#45;&gt;lect</title>
<path fill="none" stroke="#475569" d="M488,-544.09C488,-628.27 488,-807.83 488,-807.83 488,-807.83 1049.65,-807.83 1049.65,-807.83"/>
<polygon fill="#475569" stroke="#475569" points="1049.65,-810.63 1057.65,-807.83 1049.65,-805.03 1049.65,-810.63"/>
</g>
<!-- geo&#45;&gt;alertas -->
<g id="edge11" class="edge">
<title>geo&#45;&gt;alertas</title>
<path fill="none" stroke="#475569" d="M561,-544.05C561,-566.39 561,-589.17 561,-589.17 561,-589.17 1411.52,-589.17 1411.52,-589.17"/>
<polygon fill="#475569" stroke="#475569" points="1411.52,-591.97 1419.52,-589.17 1411.52,-586.37 1411.52,-591.97"/>
</g>
<!-- hist -->
<g id="node10" class="node">
<title>hist</title>
<polygon fill="#fee2e2" stroke="black" stroke-width="1.2" points="676,-514 676,-577 979,-577 979,-514 676,-514"/>
<text text-anchor="middle" x="738" y="-543" font-family="Helvetica,sans-Serif" font-size="10.00">historial_estado_agua</text>
<polyline fill="none" stroke="black" stroke-width="1.2" points="800,-514 800,-577 "/>
<text text-anchor="start" x="808" y="-565" font-family="Helvetica,sans-Serif" font-size="10.00">id PK</text>
<text text-anchor="start" x="808" y="-554" font-family="Helvetica,sans-Serif" font-size="10.00">geomembrana → geomembranas</text>
<text text-anchor="start" x="808" y="-543" font-family="Helvetica,sans-Serif" font-size="10.00">estado_general</text>
<text text-anchor="start" x="808" y="-532" font-family="Helvetica,sans-Serif" font-size="10.00">apta_produccion</text>
<text text-anchor="start" x="808" y="-521" font-family="Helvetica,sans-Serif" font-size="10.00">fecha_evaluacion</text>
</g>
<!-- geo&#45;&gt;hist -->
<g id="edge16" class="edge">
<title>geo&#45;&gt;hist</title>
<path fill="none" stroke="#475569" d="M597.16,-529C597.16,-529 667.95,-529 667.95,-529"/>
<polygon fill="#475569" stroke="#475569" points="667.95,-531.8 675.95,-529 667.95,-526.2 667.95,-531.8"/>
</g>
<!-- geo&#45;&gt;rep -->
<g id="edge19" class="edge">
<title>geo&#45;&gt;rep</title>
<path fill="none" stroke="#475569" d="M563,-458.69C563,-341.43 563,-23.79 563,-23.79 563,-23.79 701.18,-23.79 701.18,-23.79"/>
<polygon fill="#475569" stroke="#475569" points="701.18,-26.59 709.18,-23.79 701.18,-20.99 701.18,-26.59"/>
</g>
<!-- geo&#45;&gt;comp -->
<g id="edge21" class="edge">
<title>geo&#45;&gt;comp</title>
<path fill="none" stroke="#475569" d="M597.17,-486C646.4,-486 691,-486 691,-486 691,-486 691,-299.47 691,-299.47"/>
<polygon fill="#475569" stroke="#475569" points="693.8,-299.47 691,-291.47 688.2,-299.47 693.8,-299.47"/>
</g>
<!-- geo&#45;&gt;ia -->
<g id="edge23" class="edge">
<title>geo&#45;&gt;ia</title>
<path fill="none" stroke="#475569" d="M586,-459C586,-423.27 586,-378 586,-378 586,-378 695.92,-378 695.92,-378"/>
<polygon fill="#475569" stroke="#475569" points="695.92,-380.8 703.92,-378 695.92,-375.2 695.92,-380.8"/>
</g>
<!-- pred -->
<g id="node15" class="node">
<title>pred</title>
<polygon fill="#f3e8ff" stroke="black" stroke-width="1.2" points="1064,-595.5 1064,-669.5 1335,-669.5 1335,-595.5 1064,-595.5"/>
<text text-anchor="middle" x="1110" y="-630" font-family="Helvetica,sans-Serif" font-size="10.00">predicciones_ia</text>
<polyline fill="none" stroke="black" stroke-width="1.2" points="1156,-595.5 1156,-669.5 "/>
<text text-anchor="start" x="1164" y="-657.5" font-family="Helvetica,sans-Serif" font-size="10.00">id PK</text>
<text text-anchor="start" x="1164" y="-646.5" font-family="Helvetica,sans-Serif" font-size="10.00">analisis → analisis_ia</text>
<text text-anchor="start" x="1164" y="-635.5" font-family="Helvetica,sans-Serif" font-size="10.00">geomembrana → geomembranas</text>
<text text-anchor="start" x="1164" y="-624.5" font-family="Helvetica,sans-Serif" font-size="10.00">tipo_parametro → tipos</text>
<text text-anchor="start" x="1164" y="-613.5" font-family="Helvetica,sans-Serif" font-size="10.00">valor_esperado / min / max</text>
<text text-anchor="start" x="1164" y="-602.5" font-family="Helvetica,sans-Serif" font-size="10.00">valor_real / error_absoluto</text>
</g>
<!-- geo&#45;&gt;pred -->
<g id="edge26" class="edge">
<title>geo&#45;&gt;pred</title>
<path fill="none" stroke="#475569" d="M524,-544.28C524,-578.22 524,-620 524,-620 524,-620 1055.62,-620 1055.62,-620"/>
<polygon fill="#475569" stroke="#475569" points="1055.62,-622.8 1063.62,-620 1055.62,-617.2 1055.62,-622.8"/>
</g>
<!-- geo&#45;&gt;evt -->
<g id="edge29" class="edge">
<title>geo&#45;&gt;evt</title>
<path fill="none" stroke="#475569" stroke-dasharray="5,2" d="M574,-458.92C574,-365.03 574,-148.5 574,-148.5 574,-148.5 679.77,-148.5 679.77,-148.5"/>
<polygon fill="#475569" stroke="#475569" points="679.77,-151.3 687.77,-148.5 679.77,-145.7 679.77,-151.3"/>
</g>
<!-- tipos -->
<g id="node5" class="node">
<title>tipos</title>
<polygon fill="#fef9c3" stroke="black" stroke-width="1.2" points="341,-1013.5 341,-1065.5 597,-1065.5 597,-1013.5 341,-1013.5"/>
<text text-anchor="middle" x="392" y="-1037" font-family="Helvetica,sans-Serif" font-size="10.00">tipos_parametros</text>
<polyline fill="none" stroke="black" stroke-width="1.2" points="443,-1013.5 443,-1065.5 "/>
<text text-anchor="start" x="451" y="-1053.5" font-family="Helvetica,sans-Serif" font-size="10.00">id PK</text>
<text text-anchor="start" x="451" y="-1042.5" font-family="Helvetica,sans-Serif" font-size="10.00">nombre_parametro (unique)</text>
<text text-anchor="start" x="451" y="-1031.5" font-family="Helvetica,sans-Serif" font-size="10.00">unidad_medida</text>
<text text-anchor="start" x="451" y="-1020.5" font-family="Helvetica,sans-Serif" font-size="10.00">rangos normal/riesgo/critico</text>
</g>
<!-- tipos&#45;&gt;sensores -->
<g id="edge4" class="edge">
<title>tipos&#45;&gt;sensores</title>
<path fill="none" stroke="#475569" d="M597.16,-1023.25C597.16,-1023.25 699.89,-1023.25 699.89,-1023.25"/>
<polygon fill="#475569" stroke="#475569" points="699.89,-1026.05 707.89,-1023.25 699.89,-1020.45 699.89,-1026.05"/>
</g>
<!-- tipos&#45;&gt;lect -->
<g id="edge8" class="edge">
<title>tipos&#45;&gt;lect</title>
<path fill="none" stroke="#475569" d="M597.04,-1044.33C817.88,-1044.33 1247,-1044.33 1247,-1044.33 1247,-1044.33 1247,-867.1 1247,-867.1"/>
<polygon fill="#475569" stroke="#475569" points="1249.8,-867.1 1247,-859.1 1244.2,-867.1 1249.8,-867.1"/>
</g>
<!-- tipos&#45;&gt;alertas -->
<g id="edge13" class="edge">
<title>tipos&#45;&gt;alertas</title>
<path fill="none" stroke="#475569" d="M597.09,-1055.17C893.2,-1055.17 1600,-1055.17 1600,-1055.17 1600,-1055.17 1600,-675.79 1600,-675.79"/>
<polygon fill="#475569" stroke="#475569" points="1602.8,-675.79 1600,-667.79 1597.2,-675.79 1602.8,-675.79"/>
</g>
<!-- tipos&#45;&gt;pred -->
<g id="edge27" class="edge">
<title>tipos&#45;&gt;pred</title>
<path fill="none" stroke="#475569" d="M378,-1013.31C378,-925.2 378,-645 378,-645 378,-645 1055.85,-645 1055.85,-645"/>
<polygon fill="#475569" stroke="#475569" points="1055.85,-647.8 1063.85,-645 1055.85,-642.2 1055.85,-647.8"/>
</g>
<!-- sensores&#45;&gt;lect -->
<g id="edge6" class="edge">
<title>sensores&#45;&gt;lect</title>
<path fill="none" stroke="#475569" d="M947.32,-976.17C1040.13,-976.17 1153,-976.17 1153,-976.17 1153,-976.17 1153,-867.03 1153,-867.03"/>
<polygon fill="#475569" stroke="#475569" points="1155.8,-867.03 1153,-859.03 1150.2,-867.03 1155.8,-867.03"/>
</g>
<!-- sensores&#45;&gt;alertas -->
<g id="edge12" class="edge">
<title>sensores&#45;&gt;alertas</title>
<path fill="none" stroke="#475569" d="M947.16,-1004.83C1150.1,-1004.83 1540,-1004.83 1540,-1004.83 1540,-1004.83 1540,-675.52 1540,-675.52"/>
<polygon fill="#475569" stroke="#475569" points="1542.8,-675.52 1540,-667.52 1537.2,-675.52 1542.8,-675.52"/>
</g>
<!-- disp&#45;&gt;lect -->
<g id="edge9" class="edge">
<title>disp&#45;&gt;lect</title>
<path fill="none" stroke="#475569" d="M954.74,-847.75C954.74,-847.75 1049.96,-847.75 1049.96,-847.75"/>
<polygon fill="#475569" stroke="#475569" points="1049.96,-850.55 1057.96,-847.75 1049.96,-844.95 1049.96,-850.55"/>
</g>
<!-- lect&#45;&gt;alertas -->
<g id="edge14" class="edge">
<title>lect&#45;&gt;alertas</title>
<path fill="none" stroke="#475569" d="M1341.39,-805.5C1410.97,-805.5 1480,-805.5 1480,-805.5 1480,-805.5 1480,-675.88 1480,-675.88"/>
<polygon fill="#475569" stroke="#475569" points="1482.8,-675.88 1480,-667.88 1477.2,-675.88 1482.8,-675.88"/>
</g>
<!-- alertas&#45;&gt;notif -->
<g id="edge18" class="edge">
<title>alertas&#45;&gt;notif</title>
<path fill="none" stroke="#475569" d="M1540,-571.17C1540,-448.37 1540,-134 1540,-134 1540,-134 1730,-134 1730,-134"/>
<polygon fill="#475569" stroke="#475569" points="1730,-136.8 1738,-134 1730,-131.2 1730,-136.8"/>
</g>
<!-- ia&#45;&gt;pred -->
<g id="edge25" class="edge">
<title>ia&#45;&gt;pred</title>
<path fill="none" stroke="#475569" d="M951.02,-365.5C1059.45,-365.5 1200,-365.5 1200,-365.5 1200,-365.5 1200,-587.37 1200,-587.37"/>
<polygon fill="#475569" stroke="#475569" points="1197.2,-587.37 1200,-595.37 1202.8,-587.37 1197.2,-587.37"/>
</g>
</g>
</svg>
